/* XPM */
static char *paycheckcash64[] = {
/* columns rows colors chars-per-pixel */
"64 64 152 2 ",
"   c None",
".  c #966C1B",
"X  c #986B1B",
"o  c #98721B",
"O  c #B37C1F",
"+  c #A17627",
"@  c #AE842B",
"#  c #B78420",
"$  c #B48821",
"%  c #B88921",
"&  c #AA8431",
"*  c #FB8603",
"=  c #FD8B04",
"-  c #FC8E0C",
";  c #FF910E",
":  c #FC8F10",
">  c #FC9213",
",  c #F7921B",
"<  c #FB951B",
"1  c #FE991C",
"2  c #C28D23",
"3  c #CE8F2A",
"4  c #D68F23",
"5  c #C49424",
"6  c #CE9023",
"7  c #CA9824",
"8  c #D79024",
"9  c #D39E26",
"0  c #D6982A",
"q  c #D99D2B",
"w  c #DF9E33",
"e  c #E19325",
"r  c #E99A26",
"t  c #E49D2E",
"y  c #E89B2C",
"u  c #F79625",
"i  c #F99624",
"p  c #F79825",
"a  c #F89825",
"s  c #F79728",
"d  c #F89728",
"f  c #F69B2C",
"g  c #F89B2B",
"h  c #EF9C35",
"j  c #F49D33",
"k  c #F99E32",
"l  c #F39F3A",
"z  c #DBA43A",
"x  c #EEA428",
"c  c #EFA829",
"v  c #FEA326",
"b  c #FDAA27",
"n  c #F3A62A",
"m  c #FDA429",
"M  c #F0A82A",
"N  c #FCAB2A",
"B  c #F5B22B",
"V  c #FDB42C",
"C  c #FFBB2D",
"Z  c #E6A436",
"A  c #E3AA31",
"S  c #EFA830",
"D  c #EEA13F",
"F  c #E0A93A",
"G  c #F7A037",
"H  c #FAA135",
"J  c #F7AF31",
"K  c #FCA931",
"L  c #F4A13C",
"P  c #F9A33B",
"I  c #E3B13F",
"U  c #FEB431",
"Y  c #FFBE3C",
"T  c #FFC035",
"R  c #F3A444",
"E  c #FAA642",
"W  c #FAA846",
"Q  c #F1A74D",
"!  c #FAAA4A",
"~  c #EBA654",
"^  c #E7AA5F",
"/  c #EDAC5B",
"(  c #F4AB53",
")  c #FCAE51",
"_  c #FBB057",
"`  c #FBB25C",
"'  c #E5B16F",
"]  c #EBB36C",
"[  c #F2B164",
"{  c #F0B56C",
"}  c #E4B477",
"|  c #ECB672",
" . c #EEB874",
".. c #E5B97E",
"X. c #ECBA7B",
"o. c #E5BA82",
"O. c #EBBE84",
"+. c #EBBE89",
"@. c #EAC08D",
"#. c #E7C394",
"$. c #EBC494",
"%. c #EBC997",
"&. c #E7C499",
"*. c #E9C699",
"=. c #E5CA9E",
"-. c #E9C99D",
";. c #DDC9AC",
":. c #DECBB1",
">. c #E3C7A2",
",. c #E6CBA4",
"<. c #E9CBA2",
"1. c #E8CEAB",
"2. c #E5D1A7",
"3. c #E4D2AE",
"4. c #ECD1AB",
"5. c #E7D5B4",
"6. c #E8D4B5",
"7. c #E5D3B9",
"8. c #EAD7BC",
"9. c #EBD8BE",
"0. c #F0D6B4",
"q. c #D9DED0",
"w. c #E6DBC4",
"e. c #EADAC3",
"r. c #E6DCCA",
"t. c #E9DFCD",
"y. c #EEE1CA",
"u. c #E6E0D3",
"i. c #EAE1D1",
"p. c #E3E4DA",
"a. c #EAE5DD",
"s. c #E2E9DB",
"d. c #F3EDDF",
"f. c #DFFCFC",
"g. c #E8E6E2",
"h. c #E5ECE3",
"j. c #EBEDE5",
"k. c #E7ECEF",
"l. c #E8EAE9",
"z. c #E9F0ED",
"x. c #F4F0E5",
"c. c #F2F3ED",
"v. c #E7EDF0",
"b. c #E8EEF3",
"n. c #EBF2F6",
"m. c #EDF8F7",
"M. c #EBF4F9",
"N. c #E5FCFC",
"B. c #ECFAFC",
"V. c #F3F4F2",
"C. c #F4FEFE",
"Z. c #FEFFFF",
/* pixels */
"                                                                                                                                ",
"                                                                                                                                ",
"                                                                                                                                ",
"                                                                                                                                ",
"                                                  4 r v v N V V C V N v v y 3                                                   ",
"                                            r N V N v a a d a a a a a a g v N V N y                                             ",
"                                      X N C N a a a a a a a a a a a a a a a d a a b C U +                                       ",
"                                    V V g a u a a a a a a a a a a a a a a a a g p u a a B N                                     ",
"                                n V g a a a a a a a p a a a a a a a a a g g g g g a a a a a C U                                 ",
"                              C b a a a a a a a a a a a a a p a a a a a g g g g g a a a a u a b U                               ",
"                          2 V g u a a a a a a a a u a a a a a a a a d g g g g g g a a a a a a u a C F                           ",
"                        % B a u p a a a a a a a a a a a a u a p g g g g g g k g g g a a a a a u p a b z                         ",
"                      % B a a a a a a a a a a u a a a p u a g g g g g g k k k g g g g u u a a a a u a b z                       ",
"                    7 V a a a a a a u a a a a a a a a a g g g g g g k k k k H k g g g u a a a a a a a a N I                     ",
"                    V a a a a a p a a a a u a a a p g g g g g g k k k P P P k k g g g g a a u a a a a a a V                     ",
"                  C a a a a a a a a a a a a a a g g g g g g k k k k k l P P H k j g g g a a a a a a a a a a N                   ",
"                9 V p a a a a a a a a a a p p > - p j g g k k H k k P P P P P H k k g g g a a a a a a a a u 1 Y                 ",
"                C a a a a a u a a a p a a g < ^ ~ - ; k k k H H P P P W W P P j k k g g g p a a a a a a a a a v                 ",
"              V v p a p u a a a a a a g g g : w.N.1./ g k P P P P P P W W W P P H k k g g g a a a a p a a a a 1 T               ",
"            o B a u a a a a a a p g g g g < j b.Z.B.q.g H P P P W W W W W P P P H k j g g g a a p a a a a a a a b &             ",
"            c v a a a a a a a g g g g g G ; / B.Z.C.<.> P P W W W W W ! W W P P P H k k g g g a a a a a a a a u u J             ",
"            C a u a a a a p g g < - > g G - #.C.Z.C.] * k P W W W W ! ! ! W W P P P H a - > a g a a a a a p a a a b             ",
"          6 N a a a p g g g g < ~ ..R p = * e.Z.Z.Z.t./ L a a g P ! ) ) ! W W W P P a / } L < a a a a p a a a a u v Z           ",
"          N a a a g g g g g g = %.N.B.p.&.X.V.Z.Z.Z.Z.B.v.e.&.] Q k k k W W W W P P - =.N.B.;., p a a a a a p a a a n           ",
"          C a g g g g g g g p g p.Z.Z.Z.Z.C.Z.Z.Z.Z.Z.Z.Z.Z.C.B.b.w.%. .Q g d a H g < y.Z.Z.2.= g a a a a a a a a u b           ",
"        O V u a g g g k k k g j >.a.B.C.Z.Z.Z.Z.Z.Z.Z.Z.Z.Z.Z.Z.Z.Z.C.B.v.r.&.] l > ] C.Z.C.] = g d a a a a a a a u v Z         ",
"        e v a a g g g g k H P g < g ( X.4.V.Z.Z.Z.Z.Z.Z.Z.Z.Z.Z.Z.Z.Z.Z.Z.Z.C.M.l.t.V.Z.Z.n.D > g g a a a a a a a a a H         ",
"        g a a a p g g g k H H j < > > = L n.Z.Z.c.a.B.C.C.Z.Z.Z.Z.Z.Z.Z.Z.Z.Z.Z.Z.Z.Z.Z.Z.p.u g g g g a a a a a a a a g         ",
"        V a a a p p g g g g u :.w.X./ ,  .C.Z.C.%.j { $.9.l.B.C.Z.Z.Z.Z.Z.Z.Z.Z.Z.Z.Z.Z.C.+.* g k g g u a a a a a a a N         ",
"        V a a a p p g g g < R M.Z.C.B.t.d.Z.Z.B.X.v W P P ( [ 0.C.Z.Z.C.C.Z.Z.Z.Z.Z.Z.Z.Z.<.h u = = < g a a a a a a a N         ",
"        V a a a p a a g g : ] f.Z.Z.Z.Z.Z.Z.Z.M./ W ` ` ` ) g $.C.Z.y.O.9.l.B.C.Z.Z.Z.Z.Z.Z.B.p.1.} L 1 a a a a a a a V         ",
"        V a a a a a a g g u L ] <.i.M.C.Z.Z.Z.a.R ! ` ` ` [ ! t.Z.C.$.1 P ( { $.9.C.Z.Z.Z.Z.Z.Z.Z.N.] - d a a a a a a V         ",
"        V a a a a a a a g j a - - a j $.C.Z.Z.w.k ) _ ` ` ) [ b.Z.B.X.! ` ) P 1 R n.Z.Z.d.e.M.C.Z.M.l > g u a u a a a V         ",
"        V a a a a a a a a g g k H j = X.C.Z.Z.9.g ) ) _ ` P +.B.Z.b.[ ) ` ` ` P X.B.Z.C.+.- Q | 6.;.a g g g a a a a a V         ",
"        V a a a a a a a a g g g k k > 1.C.Z.Z.e.g ! ) ` ` L e.Z.Z.g.( _ ` ` ` H 1.C.Z.B.~ = ; ; > d g k g g a a a a a N         ",
"        N a a a a a a a a g g g g k > 9.C.Z.Z.l.L H ) ` v  .B.Z.Z.g.( ! ` ) W W g.Z.Z.Z.9.o./ j a v H k g g g a a a a v         ",
"        v g a a a a a a a a g g g g < 9.Z.Z.Z.C.%.u u u ( l.Z.Z.Z.M./ k ` ) a O.B.Z.Z.Z.Z.C.B.l.:.l g k g g g u a a u k         ",
"        8 v a a a a a u a a a g g g > 5.C.Z.Z.Z.C.w.@.&.l.Z.Z.Z.Z.C.7.j a < / z.Z.Z.Z.C.C.Z.Z.Z.p.f g k k j g u a a v K         ",
"        O V u a u a a a a a a g g k > &.C.Z.Z.Z.Z.Z.C.C.Z.Z.Z.Z.Z.Z.C.t.$.<.j.Z.Z.Z.V.X.$.t.M.N.=.: j k k g g g g p v t         ",
"          C u a a a a a u a a a g g ; / B.Z.Z.Z.Z.Z.Z.Z.Z.Z.Z.Z.Z.Z.Z.Z.C.C.Z.Z.Z.Z.5.* > d Q } ~ a k g g g g g g u N           ",
"          N a p a a a p a a p a g g g < w.C.Z.Z.Z.Z.Z.Z.Z.Z.C.x.Z.Z.Z.Z.Z.Z.Z.Z.Z.B./ < P k 1 > a j g g g g g d a a x           ",
"          8 N u a a a a a a a a a g k > L h.C.Z.Z.Z.Z.Z.Z.C.5.~ m.Z.Z.Z.Z.Z.Z.Z.C.3.> k k k k k d g g g g g a a u v Z           ",
"            C a u a a a a a a a a g g g - L w.B.C.Z.Z.Z.C.p.R > ,.B.Z.Z.Z.Z.Z.Z.s.j 1 G j k g g g g g g a a a a a b             ",
"            x v a a a p u a a a a a g g j > > / <.r.g.i.=.R k P j =.N.C.C.C.B.t.j > H j g g g g g a a a a a a a a M             ",
"            X B p p p a a a a a a a g g g g g < > g l k a k ! W g < Q O.%.<.] u > j g g g g g g a a a a a a a a b @             ",
"              V v u a a a a u a a a g g g g H H P H H P W W W P P P a > > : > g k g g g g g a a a a a a a a a a U               ",
"                V a a a a a a a a a a g g g g H H P H W W P P P P H H H k k k g g g g g p p a a a a a a a a a b                 ",
"                9 V u u a a a a a a a a g g g k H j P P P P P G H k k k g g g g g g a a p p p a a a a a a a v U                 ",
"                  C g u p p a p a u a a g g g j k H P P P G H k k k k g g g g g a a a u a a a a a a a a p a N                   ",
"                    V a u p a a a a a a a g g g k H H P H H k k g g g g g g g a a a a a a a a a a a a a a V                     ",
"                    5 B a a a a a a a a a g g g g k H H k k k g g g g g u a a a a u a a a u a a a a a a N A                     ",
"                      % C a u p a a u a u a g g g k k k k g g g g g g p a a a a a a a a a a a a a a a N q                       ",
"                        # B a a a a a a a a a g g k k g g g g g u a a a a a a a a a a u a a a a u a N 0                         ",
"                          2 V g u a a a a a a g g g g g g g g a p p a a a a u a a a a a a a a a g C q                           ",
"                              C N a a a a a a a g g g g g a a a a a p a a a a a a a a a a a a N V                               ",
"                                n V v a u u a a g g g g a a a a u a a a u a a a a u a u a v C n                                 ",
"                                    V V v a a a g g a a a a a a a a a a a a a a a a a g B C                                     ",
"                                      X N C N a a a a a a a a a a a a a a a a a a N C v X                                       ",
"                                            4 N C V N a a a g a a a a a a v N C V 8                                             ",
"                                                  O e v V N V V V V V V v e O                                                   ",
"                                                                                                                                ",
"                                                                                                                                ",
"                                                                                                                                ",
"                                                                                                                                "
};
