/* XPM */
static char *paycheckcash16[] = {
/* columns rows colors chars-per-pixel */
"16 16 166 2 ",
"   c None",
".  c #CD7E1E",
"X  c #CE7F1E",
"o  c #D1811E",
"O  c #D0801F",
"+  c #D5831F",
"@  c #D9841F",
"#  c #ED8F1D",
"$  c #D48220",
"%  c #D68420",
"&  c #D88520",
"*  c #D98620",
"=  c #DA8621",
"-  c #DA8825",
";  c #DF8D2A",
":  c #DA8D2E",
">  c #DF8F2F",
",  c #DF943B",
"<  c #DB933C",
"1  c #DB943F",
"2  c #DF953E",
"3  c #E38C23",
"4  c #E48C23",
"5  c #E98F22",
"6  c #EA8F23",
"7  c #EA9023",
"8  c #EC9022",
"9  c #EE9123",
"0  c #EE9223",
"q  c #EF9224",
"w  c #EF9324",
"e  c #F09323",
"r  c #F39421",
"t  c #F29423",
"y  c #F49421",
"u  c #F69523",
"i  c #F59623",
"p  c #F09424",
"a  c #F09425",
"s  c #F39624",
"d  c #F59524",
"f  c #F49525",
"g  c #F59624",
"h  c #F49625",
"j  c #F59625",
"k  c #F79624",
"l  c #F79724",
"z  c #F69625",
"x  c #F69725",
"c  c #F79725",
"v  c #F59626",
"b  c #F69726",
"n  c #F89722",
"m  c #F89723",
"M  c #F89624",
"N  c #F89724",
"B  c #F89823",
"V  c #F89824",
"C  c #F89825",
"Z  c #F99925",
"A  c #F99826",
"S  c #F89926",
"D  c #F99926",
"F  c #F99927",
"G  c #F99A26",
"H  c #F99A27",
"J  c #F49729",
"K  c #F0972F",
"L  c #F79828",
"P  c #F6992B",
"I  c #F79A2A",
"U  c #F79B2C",
"Y  c #F79D2E",
"T  c #F99A28",
"R  c #F99A29",
"E  c #FA9B29",
"W  c #F99A2A",
"Q  c #F89B2B",
"!  c #F99B2C",
"~  c #FA9B2C",
"^  c #F89B2E",
"/  c #F89C2C",
"(  c #F99C2C",
")  c #F99C2D",
"_  c #F99D2E",
"`  c #E39435",
"'  c #E59739",
"]  c #E3993F",
"[  c #F69C30",
"{  c #F79D30",
"}  c #F79D31",
"|  c #F79F35",
" . c #FA9F31",
".. c #F99E32",
"X. c #F89F33",
"o. c #F89F36",
"O. c #F59F39",
"+. c #F8A035",
"@. c #F9A035",
"#. c #F9A135",
"$. c #F8A137",
"%. c #F9A137",
"&. c #F7A139",
"*. c #F3A03F",
"=. c #F7A33E",
"-. c #F8A139",
";. c #F9A33C",
":. c #F8A43F",
">. c #EFA044",
",. c #EDA347",
"<. c #ECA34B",
"1. c #F8A440",
"2. c #F9A440",
"3. c #F9A542",
"4. c #F9A846",
"5. c #F0A44B",
"6. c #F5A649",
"7. c #E5A456",
"8. c #E5A457",
"9. c #F1A750",
"0. c #F4A951",
"q. c #F7AB52",
"w. c #F2AC57",
"e. c #F9B35F",
"r. c #E5A960",
"t. c #E8AB63",
"y. c #EBAC61",
"u. c #E4AE6E",
"i. c #EBB069",
"p. c #F2B063",
"a. c #F6B76C",
"s. c #EBB371",
"d. c #EBBE89",
"f. c #E0BC93",
"g. c #E4C198",
"h. c #EAC79B",
"j. c #E6C7A0",
"k. c #E8C8A2",
"l. c #EBCAA2",
"z. c #F1CDA3",
"x. c #E7CEB1",
"c. c #E5D0B7",
"v. c #ECD2B2",
"b. c #EAD1B5",
"n. c #E8D3BA",
"m. c #E7D5C2",
"M. c #E5D6C4",
"N. c #E7D7C5",
"B. c #E7D9C8",
"V. c #EADBCB",
"C. c #E9DDCD",
"Z. c #EDDFCE",
"A. c #E5DBD0",
"S. c #E4DBD1",
"D. c #E0DBD5",
"F. c #E4DFD7",
"G. c #E3DFDA",
"H. c #EEE1D2",
"J. c #EAE4DD",
"K. c #EBE6DE",
"L. c #E5E2E0",
"P. c #E4E3E2",
"I. c #E7E5E3",
"U. c #EAE8E5",
"Y. c #EBEBEA",
"T. c #EDEEF0",
/* pixels */
"              ; >               ",
"          4 b I Y -.'           ",
"      % h z M N A  .+.&.<       ",
"    $ p N m x L ..%.! ( O.1     ",
"    q n l <.r.K :.3._ z H 1.    ",
"  @ s { i.x.S.t.9.*.>.8.r o.]   ",
"  0 E 6.k.K.Y.I.L.n.M.f.# Z =.  ",
"o e Q y.c.C.a.z.J.H.T.m.7.y $.2 ",
"O q T ;.d.F.w.h.l.e.Z.B.u.d X., ",
"  7 j / p.P.Z.U.V.v.A.g.,.W |   ",
"  + w S 2.j.G.b.N.D.s.[ P ^ `   ",
"    6 g ~ 2.q.4.0.5.v k G }     ",
"    . 5 i R @.#.) C B G J :     ",
"      X 8 a U F V D c u -       ",
"          = 9 t f h 3           ",
"              & *               "
};
